<svg width="1084" height="315" viewBox="0 0 1084 315" fill="none" xmlns="http://www.w3.org/2000/svg">
<path id="cloud-1" opacity="0.3" d="M1083.88 148.912C1083.07 141.371 1079.9 134.432 1074.97 129.401C1070.04 124.369 1063.68 121.592 1057.1 121.591C1057.1 112.767 1054.78 104.152 1050.45 96.8875C1046.11 89.623 1039.96 84.0525 1032.82 80.9149C1025.68 77.7774 1017.89 77.2209 1010.47 79.3195C1003.04 81.418 996.352 86.0724 991.274 92.6652C988.163 91.729 984.96 91.2559 981.745 91.2575C981.369 91.2575 980.994 91.2575 980.619 91.2575C978.076 81.0612 972.426 72.2711 964.711 66.5099C956.996 60.7487 947.737 58.4053 938.642 59.9122C929.548 61.4192 921.233 66.6748 915.232 74.7088C909.23 82.7429 905.948 93.0131 905.991 103.624C905.991 104.02 905.991 104.415 905.991 104.811C900.45 102.997 894.552 103.267 889.153 105.584C886.823 101.094 883.55 97.354 879.639 94.7095C875.727 92.065 871.301 90.601 866.77 90.4524C862.239 90.3039 857.749 91.4756 853.714 93.8596C849.678 96.2435 846.228 99.7628 843.68 104.093C839.801 103.31 835.82 103.516 832.017 104.698C828.214 105.879 824.681 108.007 821.666 110.932C818.65 113.857 816.225 117.509 814.561 121.631C812.897 125.753 812.033 130.246 812.031 134.794C812.031 135.281 812.031 135.762 812.062 136.249C805.129 133.813 797.739 133.709 790.757 135.951C783.775 138.193 777.491 142.687 772.642 148.906L1083.88 148.912Z" fill="#FEFEFE"/>
<path id="cloud-2" opacity="0.3" d="M288.855 73.2207C283.195 62.3642 273.872 54.136 262.726 50.1614C251.581 46.1867 239.425 46.7545 228.658 51.7527C227.799 46.1532 225.722 40.8382 222.59 36.2218C219.458 31.6055 215.356 27.8125 210.602 25.1385C205.848 22.4645 200.572 20.9816 195.185 20.8055C189.797 20.6294 184.443 21.7648 179.541 24.1233C176.639 16.2736 171.257 9.71521 164.299 5.55118C157.341 1.38716 149.233 -0.128398 141.338 1.25945C133.444 2.6473 126.244 6.85386 120.95 13.1716C115.657 19.4893 112.592 27.5326 112.272 35.9486C105.892 38.7985 100.187 43.0941 95.5646 48.5292C93.8092 44.0904 90.8198 40.3137 86.9884 37.6945C83.157 35.0754 78.6627 33.7362 74.0951 33.8528C69.5276 33.9693 65.1002 35.5361 61.394 38.3475C57.6877 41.1589 54.8756 45.0837 53.3268 49.6068C48.4326 46.8877 43.0262 45.3453 37.4971 45.0907C31.968 44.8361 26.4541 45.8757 21.353 48.1346C16.2519 50.3934 11.6907 53.8152 7.99824 58.1532C4.30575 62.4913 1.57401 67.6375 0 73.2207H288.855Z" fill="#F1F2F2"/>
<path id="cloud-3" opacity="0.3" d="M226.446 222.998C227.085 219.967 228.482 217.177 230.488 214.925C232.494 212.673 235.034 211.043 237.839 210.209C240.643 209.374 243.607 209.366 246.415 210.185C249.223 211.004 251.771 212.619 253.788 214.86C258.861 210.179 265.138 207.24 271.8 206.427C271.95 202.391 272.959 198.445 274.751 194.887C276.543 191.33 279.071 188.255 282.143 185.895C285.215 183.536 288.75 181.954 292.48 181.271C296.209 180.587 300.036 180.819 303.67 181.949C306.205 175.971 310.731 171.212 316.37 168.595C322.008 165.978 328.356 165.69 334.182 167.787C340.008 169.883 344.896 174.215 347.898 179.941C350.9 185.668 351.802 192.38 350.429 198.776C354.725 199.482 358.849 201.08 362.569 203.48C365.597 201.224 369.032 199.666 372.656 198.905C376.279 198.143 380.011 198.194 383.615 199.054C387.218 199.915 390.615 201.566 393.588 203.903C396.562 206.241 399.047 209.212 400.886 212.63C403.057 211.03 405.561 210.024 408.181 209.698C410.801 209.373 413.455 209.738 415.912 210.763C418.368 211.788 420.551 213.441 422.269 215.576C423.988 217.712 425.189 220.264 425.767 223.011L226.446 222.998Z" fill="#F1F2F2"/>
<path id="cloud-4" opacity="0.3" d="M402.571 314.7C403.607 309.79 405.87 305.27 409.12 301.622C412.371 297.974 416.486 295.334 421.03 293.982C425.574 292.629 430.376 292.616 434.927 293.943C439.477 295.27 443.606 297.887 446.874 301.517C455.093 293.933 465.264 289.172 476.059 287.856C476.302 281.318 477.937 274.924 480.841 269.161C483.745 263.398 487.84 258.416 492.818 254.594C497.795 250.772 503.523 248.21 509.566 247.102C515.61 245.995 521.811 246.371 527.698 248.201C531.806 238.518 539.14 230.808 548.276 226.568C557.411 222.329 567.697 221.862 577.137 225.258C586.577 228.655 594.498 235.672 599.362 244.949C604.227 254.226 605.688 265.1 603.463 275.461C610.423 276.605 617.106 279.193 623.134 283.081C628.041 279.427 633.607 276.903 639.477 275.669C645.348 274.435 651.395 274.518 657.234 275.912C663.073 277.306 668.577 279.981 673.395 283.767C678.213 287.554 682.24 292.368 685.22 297.904C688.737 295.313 692.795 293.682 697.04 293.155C701.285 292.628 705.586 293.22 709.566 294.88C713.546 296.541 717.083 299.218 719.868 302.677C722.652 306.136 724.598 310.272 725.535 314.721L402.571 314.7Z" fill="#F1F2F2"/>
</svg>
