<svg width="1338" height="397" viewBox="0 0 1338 397" fill="none" xmlns="http://www.w3.org/2000/svg">
<path opacity="0.3" d="M1338 156.599C1337.22 149.406 1334.2 142.787 1329.5 137.988C1324.79 133.188 1318.73 130.539 1312.46 130.538C1312.46 122.122 1310.24 113.904 1306.11 106.974C1301.97 100.045 1296.11 94.7314 1289.3 91.7386C1282.49 88.7458 1275.05 88.215 1267.97 90.2168C1260.89 92.2185 1254.51 96.6581 1249.66 102.947C1246.7 102.054 1243.64 101.603 1240.57 101.604C1240.22 101.604 1239.86 101.604 1239.5 101.604C1237.08 91.8781 1231.69 83.4936 1224.33 77.9981C1216.97 72.5027 1208.14 70.2673 1199.46 71.7048C1190.79 73.1422 1182.85 78.1553 1177.13 85.8188C1171.41 93.4823 1168.27 103.279 1168.32 113.4C1168.32 113.777 1168.32 114.155 1168.32 114.533C1163.03 112.802 1157.4 113.06 1152.25 115.269C1150.03 110.986 1146.91 107.419 1143.18 104.897C1139.45 102.374 1135.23 100.978 1130.9 100.836C1126.58 100.694 1122.3 101.812 1118.45 104.086C1114.6 106.36 1111.31 109.717 1108.88 113.847C1105.18 113.1 1101.38 113.297 1097.75 114.424C1094.13 115.551 1090.76 117.581 1087.88 120.371C1085 123.161 1082.69 126.645 1081.1 130.577C1079.52 134.509 1078.69 138.794 1078.69 143.132C1078.69 143.597 1078.69 144.056 1078.72 144.52C1072.11 142.196 1065.06 142.097 1058.4 144.236C1051.74 146.374 1045.74 150.661 1041.12 156.594L1338 156.599Z" fill="#FEFEFE"/>
<path opacity="0.3" d="M275.53 69.1196C270.131 58.7639 261.238 50.9153 250.607 47.124C239.976 43.3327 228.38 43.8743 218.11 48.6419C217.29 43.3007 215.309 38.2309 212.322 33.8275C209.335 29.4241 205.421 25.8061 200.887 23.2554C196.352 20.7048 191.32 19.2903 186.181 19.1224C181.042 18.9544 175.935 20.0374 171.259 22.2871C168.491 14.7995 163.356 8.54366 156.72 4.57172C150.083 0.599788 142.349 -0.845853 134.818 0.477971C127.288 1.8018 120.42 5.81431 115.371 11.8406C110.321 17.8668 107.398 25.5391 107.093 33.5669C101.007 36.2854 95.5654 40.3827 91.1561 45.5672C89.4818 41.3331 86.6302 37.7306 82.9756 35.2323C79.3209 32.734 75.0339 31.4566 70.6771 31.5677C66.3203 31.6789 62.0971 33.1734 58.5618 35.8551C55.0265 38.5369 52.3442 42.2806 50.8668 46.595C46.1984 44.0014 41.0413 42.5301 35.7673 42.2872C30.4933 42.0444 25.2338 43.0361 20.368 45.1907C15.5022 47.3454 11.1514 50.6093 7.62927 54.7472C4.10712 58.8851 1.5014 63.7939 0 69.1196H275.53Z" fill="#F1F2F2"/>
<path opacity="0.3" d="M195 231.988C195.61 229.096 196.942 226.435 198.856 224.287C200.769 222.139 203.192 220.584 205.867 219.788C208.542 218.992 211.369 218.984 214.048 219.765C216.727 220.546 219.157 222.088 221.081 224.225C225.919 219.76 231.907 216.956 238.262 216.181C238.405 212.331 239.368 208.567 241.077 205.174C242.786 201.78 245.198 198.847 248.128 196.596C251.058 194.346 254.43 192.837 257.987 192.185C261.545 191.533 265.195 191.754 268.661 192.832C271.08 187.13 275.397 182.591 280.775 180.094C286.153 177.598 292.209 177.323 297.766 179.323C303.323 181.323 307.986 185.455 310.85 190.917C313.713 196.379 314.573 202.782 313.263 208.883C317.361 209.556 321.295 211.081 324.843 213.37C327.732 211.218 331.009 209.732 334.465 209.006C337.921 208.279 341.481 208.328 344.918 209.148C348.356 209.969 351.596 211.545 354.432 213.774C357.268 216.003 359.639 218.838 361.393 222.098C363.463 220.572 365.853 219.612 368.352 219.301C370.85 218.991 373.382 219.34 375.725 220.317C378.069 221.295 380.151 222.871 381.79 224.908C383.429 226.945 384.575 229.38 385.126 232L195 231.988Z" fill="#F1F2F2"/>
<path opacity="0.3" d="M528.461 396.98C529.449 392.296 531.608 387.985 534.708 384.505C537.809 381.025 541.735 378.507 546.069 377.217C550.403 375.927 554.984 375.915 559.324 377.18C563.665 378.446 567.603 380.942 570.72 384.405C578.56 377.171 588.262 372.63 598.559 371.374C598.791 365.137 600.351 359.039 603.12 353.542C605.89 348.044 609.797 343.292 614.545 339.647C619.292 336.001 624.756 333.557 630.521 332.5C636.285 331.444 642.2 331.802 647.816 333.549C651.735 324.312 658.73 316.957 667.444 312.914C676.159 308.87 685.97 308.424 694.974 311.664C703.979 314.904 711.534 321.598 716.174 330.446C720.815 339.295 722.208 349.668 720.085 359.551C726.725 360.642 733.1 363.111 738.849 366.819C743.53 363.334 748.839 360.927 754.439 359.75C760.039 358.572 765.807 358.651 771.377 359.981C776.946 361.311 782.196 363.863 786.792 367.474C791.388 371.086 795.229 375.678 798.072 380.959C801.426 378.487 805.297 376.931 809.346 376.428C813.395 375.926 817.498 376.491 821.294 378.074C825.091 379.658 828.465 382.212 831.121 385.512C833.776 388.811 835.633 392.756 836.526 397L528.461 396.98Z" fill="#F1F2F2"/>
</svg>
